<svg width="88" height="95" viewBox="0 0 88 95" fill="none" xmlns="http://www.w3.org/2000/svg">
<path d="M88.0049 78.9999C88.0048 87.8364 80.8414 94.9999 72.0049 94.9999H16.0049C7.16857 94.9997 0.00497277 87.8362 0.00488281 78.9999V33.9999H88.0049V78.9999ZM13.0312 55.705H15.71V72.4999H13.0312V90.455H36.5195V75.371L41.9229 83.0624L43.7637 85.6825L45.6045 83.0624L51.0078 75.371V90.455H74.4961V72.4999H71.8164V55.705H74.4961V37.7499H53.3203L52.6455 38.6219L43.7637 50.077L34.8818 38.6219L34.207 37.7499H13.0312V55.705ZM41.9863 55.1259L43.7637 57.4188L45.541 55.1259L55.5244 42.2499H69.9961V51.205H67.3164V76.9999H69.9961V85.955H55.5078V61.1405L51.417 66.9628L43.7637 77.8553L36.1104 66.9628L32.0195 61.1405V85.955H17.5312V76.9999H20.21V51.205H17.5312V42.2499H32.0029L41.9863 55.1259ZM20.9619 13.9999C18.7241 16.2991 18.6851 19.9746 20.917 22.3182C23.1312 24.6429 26.7641 24.8024 29.1729 22.7303L29.2021 22.705L29.2305 22.6796L29.3447 22.576L29.373 22.5507L29.4004 22.5243C30.9296 21.0676 32.0362 19.2677 32.7725 17.3973C33.2028 16.3041 33.5141 15.1612 33.7158 13.9999H41.9619C39.7241 16.2991 39.6851 19.9746 41.917 22.3182C44.1312 24.6429 47.7641 24.8024 50.1729 22.7303L50.2021 22.705L50.2305 22.6796L50.3447 22.576L50.373 22.5507L50.4004 22.5243C51.9296 21.0676 53.0362 19.2677 53.7725 17.3973C54.2028 16.3041 54.5141 15.1612 54.7158 13.9999H62.9619C60.7241 16.2991 60.6851 19.9746 62.917 22.3182C65.1312 24.6429 68.7641 24.8024 71.1729 22.7303L71.2021 22.705L71.2305 22.6796L71.3447 22.576L71.373 22.5507L71.4004 22.5243C72.9296 21.0676 74.0362 19.2677 74.7725 17.3973C75.1735 16.3786 75.4721 15.3169 75.6748 14.2372C82.6829 15.4986 87.9999 21.6286 88 28.9999H0C6.60503e-05 20.7157 6.71577 13.9999 15 13.9999H20.9619ZM19.7109 0.439331C21.0433 -0.0841053 22.471 -0.142058 23.8379 0.284058C25.1888 0.705398 26.3637 1.56076 27.3008 2.67371C28.2367 3.78544 28.9394 5.154 29.3906 6.6405C29.8427 8.13 30.0424 9.73601 29.9854 11.3329C29.9283 12.9293 29.615 14.505 29.0527 15.9335C28.4916 17.3588 27.6816 18.6401 26.6426 19.6298L26.4873 19.7626C25.6866 20.384 24.5288 20.3098 23.8145 19.5604C23.0529 18.7606 23.0841 17.495 23.8838 16.7333L24.0879 16.5253C24.5587 16.0159 24.9927 15.3254 25.3301 14.4686C25.7144 13.4922 25.9462 12.367 25.9883 11.1903C26.0303 10.014 25.8804 8.85012 25.5625 7.80261C25.2437 6.75237 24.7766 5.8859 24.2412 5.24988C23.7072 4.61563 23.1483 4.25875 22.6475 4.10242C22.1624 3.95119 21.6703 3.96701 21.1738 4.16199C20.6607 4.36365 20.0985 4.77767 19.5752 5.46863C19.0519 6.15976 18.6109 7.07298 18.3281 8.1532C18.0484 9.22121 16.9558 9.86081 15.8877 9.58191C14.8192 9.30226 14.1795 8.20898 14.459 7.1405C14.8549 5.62815 15.502 4.22073 16.3857 3.05359C17.2697 1.88634 18.395 0.956471 19.7109 0.439331ZM40.7109 0.439331C42.0433 -0.0841053 43.471 -0.142058 44.8379 0.284058C46.1888 0.705398 47.3637 1.56076 48.3008 2.67371C49.2367 3.78544 49.9394 5.154 50.3906 6.6405C50.8427 8.13 51.0424 9.73601 50.9854 11.3329C50.9283 12.9293 50.615 14.505 50.0527 15.9335C49.4916 17.3588 48.6816 18.6401 47.6426 19.6298L47.4873 19.7626C46.6866 20.384 45.5288 20.3098 44.8145 19.5604C44.0529 18.7606 44.0841 17.495 44.8838 16.7333L45.0879 16.5253C45.5587 16.0159 45.9927 15.3254 46.3301 14.4686C46.7144 13.4922 46.9462 12.367 46.9883 11.1903C47.0303 10.014 46.8804 8.85012 46.5625 7.80261C46.2437 6.75237 45.7766 5.8859 45.2412 5.24988C44.7072 4.61563 44.1483 4.25875 43.6475 4.10242C43.1624 3.95119 42.6703 3.96701 42.1738 4.16199C41.6607 4.36365 41.0985 4.77767 40.5752 5.46863C40.0519 6.15976 39.6109 7.07298 39.3281 8.1532C39.0484 9.22121 37.9558 9.86081 36.8877 9.58191C35.8192 9.30226 35.1795 8.20898 35.459 7.1405C35.8549 5.62815 36.502 4.22073 37.3857 3.05359C38.2697 1.88634 39.395 0.956471 40.7109 0.439331ZM61.7109 0.439331C63.0433 -0.0841053 64.471 -0.142058 65.8379 0.284058C67.1888 0.705398 68.3637 1.56076 69.3008 2.67371C70.2367 3.78544 70.9394 5.154 71.3906 6.6405C71.8427 8.13 72.0424 9.73601 71.9854 11.3329C71.9283 12.9293 71.615 14.505 71.0527 15.9335C70.4916 17.3588 69.6816 18.6401 68.6426 19.6298L68.4873 19.7626C67.6866 20.384 66.5288 20.3098 65.8145 19.5604C65.0529 18.7606 65.0841 17.495 65.8838 16.7333L66.0879 16.5253C66.5587 16.0159 66.9927 15.3254 67.3301 14.4686C67.7144 13.4922 67.9462 12.367 67.9883 11.1903C68.0303 10.014 67.8804 8.85012 67.5625 7.80261C67.2437 6.75237 66.7766 5.8859 66.2412 5.24988C65.7072 4.61563 65.1483 4.25875 64.6475 4.10242C64.1624 3.95119 63.6703 3.96701 63.1738 4.16199C62.6607 4.36365 62.0985 4.77767 61.5752 5.46863C61.0519 6.15976 60.6109 7.07298 60.3281 8.1532C60.0484 9.22121 58.9558 9.86081 57.8877 9.58191C56.8192 9.30226 56.1795 8.20898 56.459 7.1405C56.8549 5.62815 57.502 4.22073 58.3857 3.05359C59.2697 1.88634 60.395 0.956471 61.7109 0.439331Z" fill="#FDBF57"/>
</svg>
