<svg width="20" height="29" viewBox="0 0 20 29" fill="none" xmlns="http://www.w3.org/2000/svg">
<mask id="path-1-outside-1_35_75" maskUnits="userSpaceOnUse" x="0" y="0" width="20" height="29" fill="black">
<rect fill="white" width="20" height="29"/>
<path d="M10 3C13.866 3 16.9999 6.15061 17 10.0371C17 15.0903 10 24 10 24C10 24 3 15.0903 3 10.0371C3.00007 6.15061 6.13405 3 10 3ZM10 7C8.3431 7 7 8.3431 7 10C7 11.6569 8.3431 13 10 13C11.6569 13 13 11.6569 13 10C13 8.34313 11.6569 7.00004 10 7Z"/>
</mask>
<path d="M10 3V0.083333V3ZM17 10.0371H19.9167L19.9167 10.0371L17 10.0371ZM10 24L7.70651 25.8019L10 28.7211L12.2935 25.8019L10 24ZM3 10.0371L0.083333 10.0371V10.0371H3ZM10 7L10.0001 4.08333H10V7ZM7 10H4.08333V10L7 10ZM10 13V15.9167H10.0001L10 13ZM13 10L15.9167 10V10H13ZM10 3V5.91667C12.2406 5.91667 14.0833 7.74686 14.0833 10.0372L17 10.0371L19.9167 10.0371C19.9166 4.55436 15.4913 0.0833333 10 0.083333V3ZM17 10.0371H14.0833C14.0833 10.7154 13.8247 11.79 13.2215 13.2109C12.6416 14.5769 11.8453 16.03 11.0123 17.3909C10.1847 18.7431 9.35207 19.9536 8.72432 20.8281C8.4115 21.2639 8.15215 21.6127 7.97313 21.8497C7.88368 21.9682 7.81447 22.0586 7.76887 22.1177C7.74607 22.1473 7.72919 22.169 7.71866 22.1825C7.71339 22.1893 7.70971 22.194 7.70766 22.1966C7.70664 22.1979 7.70603 22.1987 7.70584 22.199C7.70574 22.1991 7.70575 22.1991 7.70586 22.1989C7.70592 22.1989 7.70608 22.1986 7.70611 22.1986C7.7063 22.1984 7.70651 22.1981 10 24C12.2935 25.8019 12.2938 25.8016 12.2941 25.8012C12.2942 25.801 12.2945 25.8006 12.2948 25.8003C12.2953 25.7996 12.296 25.7988 12.2967 25.7978C12.2982 25.7959 12.3001 25.7934 12.3025 25.7904C12.3072 25.7844 12.3135 25.7763 12.3215 25.766C12.3375 25.7456 12.3599 25.7166 12.3884 25.6797C12.4453 25.6059 12.5265 25.4999 12.6284 25.3648C12.8322 25.0949 13.1198 24.7082 13.4632 24.2297C14.1479 23.2758 15.0653 21.943 15.9877 20.4362C16.9047 18.9379 17.8584 17.2162 18.591 15.4904C19.3003 13.8195 19.9167 11.8854 19.9167 10.0371H17ZM10 24C12.2935 22.1981 12.2937 22.1984 12.2939 22.1986C12.2939 22.1986 12.2941 22.1989 12.2941 22.1989C12.2943 22.1991 12.2943 22.1991 12.2942 22.199C12.294 22.1987 12.2934 22.1979 12.2923 22.1966C12.2903 22.194 12.2866 22.1893 12.2813 22.1825C12.2708 22.169 12.2539 22.1473 12.2311 22.1177C12.1855 22.0586 12.1163 21.9682 12.0269 21.8497C11.8479 21.6127 11.5885 21.2639 11.2757 20.8281C10.6479 19.9536 9.81533 18.7431 8.98766 17.3909C8.15473 16.03 7.35838 14.5769 6.77852 13.2109C6.1753 11.79 5.91667 10.7154 5.91667 10.0371H3H0.083333C0.083333 11.8854 0.699695 13.8195 1.40898 15.4904C2.14162 17.2162 3.09527 18.9379 4.01234 20.4362C4.93467 21.943 5.85207 23.2758 6.53682 24.2297C6.88025 24.7082 7.16777 25.0949 7.37157 25.3648C7.47352 25.4999 7.5547 25.6059 7.61164 25.6797C7.64011 25.7166 7.66254 25.7456 7.67849 25.766C7.68647 25.7763 7.69283 25.7844 7.69752 25.7904C7.69986 25.7934 7.70179 25.7959 7.70329 25.7978C7.70404 25.7988 7.70468 25.7996 7.70522 25.8003C7.70549 25.8006 7.70581 25.801 7.70595 25.8012C7.70624 25.8016 7.70651 25.8019 10 24ZM3 10.0371L5.91667 10.0372C5.91671 7.74686 7.75943 5.91667 10 5.91667V3V0.083333C4.50867 0.083333 0.0834277 4.55436 0.083333 10.0371L3 10.0371ZM10 7V4.08333C6.73227 4.08333 4.08333 6.73227 4.08333 10H7H9.91667C9.91667 9.98308 9.91952 9.97432 9.92202 9.96841C9.92535 9.96056 9.93141 9.9507 9.94106 9.94106C9.9507 9.93141 9.96056 9.92535 9.96841 9.92202C9.97432 9.91952 9.98308 9.91667 10 9.91667V7ZM7 10L4.08333 10C4.08334 13.2677 6.73227 15.9167 10 15.9167V13V10.0833C9.98308 10.0833 9.97433 10.0805 9.96841 10.078C9.96056 10.0747 9.95071 10.0686 9.94106 10.0589C9.93141 10.0493 9.92535 10.0394 9.92202 10.0316C9.91952 10.0257 9.91667 10.0169 9.91667 10L7 10ZM10 13L10.0001 15.9167C13.2676 15.9166 15.9167 13.2678 15.9167 10L13 10L10.0833 10C10.0833 10.0169 10.0805 10.0256 10.078 10.0315C10.0747 10.0394 10.0686 10.0492 10.0589 10.0589C10.0493 10.0686 10.0394 10.0746 10.0315 10.078C10.0256 10.0805 10.0168 10.0833 9.99992 10.0833L10 13ZM13 10H15.9167C15.9167 6.73222 13.2676 4.08342 10.0001 4.08333L10 7L9.99992 9.91667C10.0168 9.91667 10.0256 9.91952 10.0315 9.92203C10.0394 9.92536 10.0493 9.93144 10.0589 9.9411C10.0686 9.95075 10.0747 9.96061 10.078 9.96846C10.0805 9.97437 10.0833 9.9831 10.0833 10H13Z" fill="#7A003D" mask="url(#path-1-outside-1_35_75)"/>
</svg>
